<svg xmlns="http://www.w3.org/2000/svg" viewBox="0 0 320 320" role="img" aria-labelledby="t d"><title id="t">Русская драма — фестивальный колокол</title><desc id="d">Белый колокол и круговая надпись на бордовом фоне</desc><defs><path id="ring" d="M160 160 m-122 0 a122 122 0 1 1 244 0 a122 122 0 1 1-244 0"/></defs><rect width="320" height="320" rx="160" fill="#8b1016"/><circle cx="160" cy="160" r="137" fill="none" stroke="#fff" stroke-width="2" opacity=".32"/><text fill="#fff" font-family="Arial, sans-serif" font-size="15" font-weight="700" letter-spacing="1.2"><textPath href="#ring" startOffset="2%">МОСКОВСКИЙ МЕЖДУНАРОДНЫЙ ФЕСТИВАЛЬ ШКОЛЬНЫХ ТЕАТРОВ • «РУССКАЯ ДРАМА» • </textPath></text><g fill="none" stroke="#fff" stroke-width="8" stroke-linecap="round" stroke-linejoin="round"><path d="M108 200h104"/><path d="M122 196c10-16 15-40 15-67 0-22 11-40 23-46 12 6 23 24 23 46 0 27 5 51 15 67"/><path d="M147 79v-14h26v14"/><path d="M154 61v-16h12v16"/><path d="M145 208c4 15 25 15 30 0"/><path d="M117 212h86"/></g><path d="M135 199c8-14 13-38 13-67 0-19 5-34 12-42 7 8 12 23 12 42 0 29 5 53 13 67z" fill="#fff" opacity=".95"/><path d="M151 214c4 9 14 9 18 0" fill="none" stroke="#fff" stroke-width="7" stroke-linecap="round"/></svg>